<svg width="20" height="20" viewBox="0 0 20 20" fill="none" xmlns="http://www.w3.org/2000/svg">
<path fill-rule="evenodd" clip-rule="evenodd" d="M13.4849 9.03226C12.8821 9.03226 12.304 8.77736 11.8778 8.32365C11.4516 7.86993 11.2121 7.25456 11.2121 6.61291H8.09096V7.58065C8.09096 7.76887 8.02072 7.94937 7.8957 8.08246C7.77068 8.21556 7.60111 8.29032 7.4243 8.29032C7.24749 8.29032 7.07792 8.21556 6.9529 8.08246C6.82788 7.94937 6.75764 7.76887 6.75764 7.58065V6.61291H5.54553C5.47341 6.61203 5.40187 6.62656 5.33512 6.65564C5.26838 6.68471 5.20778 6.72774 5.15693 6.78217C5.10608 6.83661 5.06599 6.90135 5.03905 6.97256C5.01211 7.04377 4.99886 7.12002 5.00008 7.19678V14.4161C4.99887 14.4915 5.01164 14.5665 5.03764 14.6366C5.06364 14.7068 5.10237 14.7708 5.15161 14.825C5.20086 14.8792 5.25965 14.9226 5.32464 14.9526C5.38963 14.9826 5.45954 14.9987 5.53038 15H14.1667C14.2375 14.9987 14.3074 14.9826 14.3724 14.9526C14.4374 14.9226 14.4962 14.8792 14.5454 14.825C14.5947 14.7708 14.6334 14.7068 14.6594 14.6366C14.6854 14.5665 14.6982 14.4915 14.697 14.4161V8.65807C14.3346 8.90293 13.9141 9.03273 13.4849 9.03226ZM6.81824 13.0645H7.4243V12.4194H6.81824V13.0645ZM6.81824 11.4516H7.4243V10.8065H6.81824V11.4516ZM6.81824 9.83871H7.4243V9.19355H6.81824V9.83871ZM8.63641 13.0645H9.24247V12.4194H8.63641V13.0645ZM8.63641 11.4516H9.24247V10.8065H8.63641V11.4516ZM8.63641 9.83871H9.24247V9.19355H8.63641V9.83871ZM10.4546 13.0645H11.0606V12.4194H10.4546V13.0645ZM10.4546 11.4516H11.0606V10.8065H10.4546V11.4516ZM10.4546 9.83871H11.0606V9.19355H10.4546V9.83871ZM12.2727 13.0645H12.8788V12.4194H12.2727V13.0645ZM12.2727 11.4516H12.8788V10.8065H12.2727V11.4516ZM12.2727 9.83871H12.8788V9.19355H12.2727V9.83871Z" fill="white"/>
<path d="M15 6.6129C15 7.50368 14.3216 8.22581 13.4849 8.22581C12.6481 8.22581 11.9697 7.50368 11.9697 6.6129C11.9697 5.72212 12.6481 5 13.4849 5C14.3216 5 15 5.72212 15 6.6129Z" fill="white"/>
<path d="M7.4243 7.90323C7.50467 7.90323 7.58174 7.86925 7.63857 7.80875C7.6954 7.74825 7.72733 7.6662 7.72733 7.58065V5.64517C7.72733 5.55961 7.6954 5.47756 7.63857 5.41707C7.58174 5.35657 7.50467 5.32259 7.4243 5.32259C7.34393 5.32259 7.26686 5.35657 7.21003 5.41707C7.1532 5.47756 7.12127 5.55961 7.12127 5.64517V7.58065C7.12127 7.6662 7.1532 7.74825 7.21003 7.80875C7.26686 7.86925 7.34393 7.90323 7.4243 7.90323Z" fill="white"/>
</svg>
