<svg width="20" height="20" viewBox="0 0 20 20" fill="none" xmlns="http://www.w3.org/2000/svg">
<path d="M10 5C11.3261 5 12.5979 5.52678 13.5355 6.46447C14.4732 7.40215 15 8.67392 15 10C15 11.3261 14.4732 12.5979 13.5355 13.5355C12.5979 14.4732 11.3261 15 10 15C8.67392 15 7.40215 14.4732 6.46447 13.5355C5.52678 12.5979 5 11.3261 5 10C5 8.67392 5.52678 7.40215 6.46447 6.46447C7.40215 5.52678 8.67392 5 10 5V5ZM10 7.14286C9.90931 7.14278 9.81961 7.16162 9.73661 7.19817C9.65362 7.23471 9.57916 7.28817 9.51799 7.35512C9.45682 7.42207 9.41029 7.50104 9.38136 7.58699C9.35244 7.67294 9.34176 7.76398 9.35 7.85429L9.61071 10.7157C9.62082 10.8119 9.66619 10.901 9.73808 10.9657C9.80996 11.0304 9.90327 11.0662 10 11.0662C10.0967 11.0662 10.19 11.0304 10.2619 10.9657C10.3338 10.901 10.3792 10.8119 10.3893 10.7157L10.6493 7.85429C10.6575 7.76404 10.6469 7.67306 10.618 7.58716C10.5891 7.50126 10.5426 7.42232 10.4815 7.35538C10.4204 7.28844 10.3461 7.23497 10.2632 7.19838C10.1803 7.16179 10.0906 7.14288 10 7.14286V7.14286ZM10 12.8571C10.1516 12.8571 10.2969 12.7969 10.4041 12.6898C10.5112 12.5826 10.5714 12.4373 10.5714 12.2857C10.5714 12.1342 10.5112 11.9888 10.4041 11.8817C10.2969 11.7745 10.1516 11.7143 10 11.7143C9.84845 11.7143 9.7031 11.7745 9.59594 11.8817C9.48878 11.9888 9.42857 12.1342 9.42857 12.2857C9.42857 12.4373 9.48878 12.5826 9.59594 12.6898C9.7031 12.7969 9.84845 12.8571 10 12.8571V12.8571Z" fill="white"/>
</svg>
