<svg width="20" height="20" viewBox="0 0 20 20" fill="none" xmlns="http://www.w3.org/2000/svg">
<path d="M12.1046 12H7.89541C7.72924 12.0003 7.56639 11.9477 7.42572 11.8485C7.28506 11.7493 7.17232 11.6074 7.10056 11.4393C7.01656 11.2398 6.98421 11.0179 7.00719 10.7988C7.03017 10.5797 7.10756 10.3723 7.23054 10.2001L9.33513 7.34052C9.41772 7.23363 9.51983 7.14791 9.63455 7.08916C9.74926 7.03041 9.87389 7 10 7C10.1261 7 10.2507 7.03041 10.3655 7.08916C10.4802 7.14791 10.5823 7.23363 10.6649 7.34052L12.7695 10.2001C12.8924 10.3723 12.9698 10.5797 12.9928 10.7988C13.0158 11.0179 12.9834 11.2398 12.8994 11.4393C12.8277 11.6074 12.7149 11.7493 12.5743 11.8485C12.4336 11.9477 12.2708 12.0003 12.1046 12ZM8.00039 10.8786H11.9496L10 8.17598L8.00039 10.8786Z" fill="white"/>
</svg>
