<svg width="20" height="20" viewBox="0 0 20 20" fill="none" xmlns="http://www.w3.org/2000/svg">
<path d="M10.9381 15H9.06223C8.94469 15 8.83068 14.9611 8.73911 14.8896C8.64753 14.8181 8.58389 14.7184 8.55873 14.607L8.34899 13.665C8.06919 13.5461 7.80387 13.3973 7.55793 13.2215L6.61124 13.514C6.49919 13.5487 6.37828 13.5451 6.2686 13.5039C6.15892 13.4627 6.06706 13.3863 6.00829 13.2875L5.06829 11.712C5.01014 11.6131 4.9883 11.4979 5.00637 11.3854C5.02444 11.2728 5.08134 11.1696 5.16776 11.0925L5.90212 10.4425C5.86873 10.1481 5.86873 9.85094 5.90212 9.5565L5.16776 8.908C5.08121 8.83089 5.02424 8.72754 5.00617 8.61489C4.9881 8.50225 5.01 8.38698 5.06829 8.288L6.00622 6.7115C6.065 6.61266 6.15686 6.5363 6.26654 6.49509C6.37622 6.45389 6.49712 6.45033 6.60918 6.485L7.55587 6.7775C7.68162 6.6875 7.81251 6.6035 7.94753 6.5275C8.07792 6.4565 8.21191 6.392 8.34899 6.3345L8.55925 5.3935C8.58428 5.2821 8.6478 5.18234 8.73928 5.11077C8.83077 5.0392 8.94471 5.00012 9.06223 5H10.9381C11.0556 5.00012 11.1696 5.0392 11.261 5.11077C11.3525 5.18234 11.416 5.2821 11.4411 5.3935L11.6534 6.335C11.9328 6.45463 12.1981 6.60334 12.4444 6.7785L13.3917 6.486C13.5036 6.45146 13.6244 6.45509 13.734 6.49628C13.8436 6.53748 13.9353 6.61376 13.9941 6.7125L14.932 8.289C15.0516 8.4925 15.0104 8.75 14.8326 8.9085L14.0982 9.5585C14.1316 9.85294 14.1316 10.1501 14.0982 10.4445L14.8326 11.0945C15.0104 11.2535 15.0516 11.5105 14.932 11.714L13.9941 13.2905C13.9353 13.3893 13.8435 13.4657 13.7338 13.5069C13.6241 13.5481 13.5032 13.5517 13.3911 13.517L12.4444 13.2245C12.1987 13.4002 11.9335 13.5488 11.6539 13.6675L11.4411 14.607C11.4159 14.7183 11.3524 14.8179 11.2609 14.8894C11.1694 14.9609 11.0555 14.9999 10.9381 15V15ZM9.9981 8C9.45138 8 8.92706 8.21071 8.54048 8.58579C8.15389 8.96086 7.93671 9.46957 7.93671 10C7.93671 10.5304 8.15389 11.0391 8.54048 11.4142C8.92706 11.7893 9.45138 12 9.9981 12C10.5448 12 11.0691 11.7893 11.4557 11.4142C11.8423 11.0391 12.0595 10.5304 12.0595 10C12.0595 9.46957 11.8423 8.96086 11.4557 8.58579C11.0691 8.21071 10.5448 8 9.9981 8V8Z" fill="white"/>
</svg>
