<svg width="20" height="20" viewBox="0 0 20 20" fill="none" xmlns="http://www.w3.org/2000/svg">
<path d="M10 5C7.23884 5 5 7.23884 5 10C5 12.7612 7.23884 15 10 15C12.7612 15 15 12.7612 15 10C15 7.23884 12.7612 5 10 5ZM10 14.1518C7.70759 14.1518 5.84821 12.2924 5.84821 10C5.84821 7.70759 7.70759 5.84821 10 5.84821C12.2924 5.84821 14.1518 7.70759 14.1518 10C14.1518 12.2924 12.2924 14.1518 10 14.1518ZM12.2143 7.58817C12.1706 7.57109 12.1239 7.56279 12.077 7.56375C12.0301 7.56471 11.9838 7.5749 11.9408 7.59375L8.91629 8.91741L7.59375 11.942C7.55357 12.0335 7.55357 12.1373 7.59375 12.2288C7.6317 12.3158 7.70201 12.3839 7.79129 12.4185C7.83371 12.4353 7.87723 12.4431 7.92187 12.4431C7.97098 12.4431 8.01897 12.433 8.06473 12.4129L11.0893 11.0893L12.4118 8.06473C12.4311 8.02059 12.4413 7.97301 12.4418 7.92484C12.4422 7.87667 12.433 7.8289 12.4145 7.78439C12.3961 7.73989 12.3688 7.69957 12.3344 7.66586C12.3 7.63214 12.2592 7.60571 12.2143 7.58817V7.58817ZM10.7232 10.25L11.0156 10.5424L10.5424 11.0156L10.25 10.7232L8.52679 11.4777L9.28013 9.75446L8.99554 9.46875L9.46875 8.99554L9.75335 9.28013L11.4777 8.52679L10.7232 10.25ZM9.46875 8.99554L8.99554 9.46875L9.28013 9.75446L10.25 10.7232L10.5424 11.0156L11.0156 10.5424L10.7232 10.25L9.75446 9.28013L9.46875 8.99554Z" fill="white"/>
</svg>
