<svg width="20" height="20" viewBox="0 0 20 20" fill="none" xmlns="http://www.w3.org/2000/svg">
<path d="M10.1075 10.3853C10.2897 10.2325 10.4358 10.0435 10.5359 9.83107C10.636 9.61869 10.6878 9.38792 10.6878 9.15441C10.6878 8.71563 10.508 8.29483 10.1879 7.98457C9.86782 7.6743 9.43367 7.5 8.98098 7.5C8.52829 7.5 8.09415 7.6743 7.77405 7.98457C7.45395 8.29483 7.27412 8.71563 7.27412 9.15441C7.27412 9.38792 7.32594 9.61869 7.42607 9.83107C7.5262 10.0435 7.6723 10.2325 7.85445 10.3853C7.37658 10.595 6.97114 10.9337 6.68661 11.3609C6.40208 11.7881 6.2505 12.2857 6.25 12.7941C6.25 12.8819 6.28597 12.966 6.34999 13.0281C6.41401 13.0901 6.50084 13.125 6.59137 13.125C6.68191 13.125 6.76874 13.0901 6.83276 13.0281C6.89678 12.966 6.93275 12.8819 6.93275 12.7941C6.93275 12.2676 7.14854 11.7626 7.53266 11.3903C7.91678 11.018 8.43776 10.8088 8.98098 10.8088C9.52421 10.8088 10.0452 11.018 10.4293 11.3903C10.8134 11.7626 11.0292 12.2676 11.0292 12.7941C11.0292 12.8819 11.0652 12.966 11.1292 13.0281C11.1932 13.0901 11.2801 13.125 11.3706 13.125C11.4611 13.125 11.548 13.0901 11.612 13.0281C11.676 12.966 11.712 12.8819 11.712 12.7941C11.7115 12.2857 11.5599 11.7881 11.2754 11.3609C10.9908 10.9337 10.5854 10.595 10.1075 10.3853V10.3853ZM8.98098 10.1471C8.77843 10.1471 8.58043 10.0888 8.41201 9.97977C8.2436 9.87069 8.11233 9.71566 8.03482 9.53428C7.95731 9.3529 7.93703 9.15331 7.97654 8.96076C8.01606 8.7682 8.1136 8.59133 8.25682 8.4525C8.40005 8.31368 8.58253 8.21914 8.78119 8.18084C8.97985 8.14254 9.18576 8.16219 9.37289 8.23733C9.56003 8.31246 9.71997 8.43969 9.8325 8.60293C9.94504 8.76617 10.0051 8.95808 10.0051 9.15441C10.0051 9.41768 9.8972 9.67016 9.70514 9.85632C9.51308 10.0425 9.25259 10.1471 8.98098 10.1471ZM12.306 10.2529C12.5244 10.0145 12.6671 9.71991 12.7169 9.40467C12.7667 9.08943 12.7214 8.76697 12.5865 8.4761C12.4516 8.18523 12.2328 7.93835 11.9565 7.76518C11.6803 7.592 11.3582 7.49991 11.0292 7.5C10.9387 7.5 10.8519 7.53486 10.7878 7.59691C10.7238 7.65897 10.6878 7.74313 10.6878 7.83088C10.6878 7.91864 10.7238 8.0028 10.7878 8.06485C10.8519 8.1269 10.9387 8.16176 11.0292 8.16176C11.3008 8.16176 11.5613 8.26635 11.7534 8.4525C11.9454 8.63866 12.0533 8.89115 12.0533 9.15441C12.0529 9.3282 12.0053 9.49883 11.9154 9.64922C11.8256 9.79961 11.6966 9.9245 11.5413 10.0114C11.4907 10.0397 11.4484 10.0801 11.4185 10.1288C11.3886 10.1774 11.3721 10.2327 11.3706 10.2893C11.3692 10.3455 11.3825 10.4011 11.4094 10.4509C11.4363 10.5007 11.4758 10.543 11.5242 10.5739L11.6573 10.6599L11.7017 10.6831C12.1132 10.8723 12.4604 11.1715 12.7023 11.5455C12.9442 11.9195 13.0708 12.3527 13.0672 12.7941C13.0672 12.8819 13.1032 12.966 13.1672 13.0281C13.2312 13.0901 13.318 13.125 13.4086 13.125C13.4991 13.125 13.586 13.0901 13.65 13.0281C13.714 12.966 13.75 12.8819 13.75 12.7941C13.7527 12.2864 13.6215 11.7863 13.3688 11.3416C13.1161 10.8968 12.7502 10.5221 12.306 10.2529V10.2529Z" fill="white"/>
</svg>
