<svg width="53" height="38" viewBox="0 0 53 38" fill="none" xmlns="http://www.w3.org/2000/svg">
<g clip-path="url(#clip0_4_151)">
<path fill-rule="evenodd" clip-rule="evenodd" d="M15.6393 7.40909C15.1595 7.40909 14.7705 7.79575 14.7705 8.27273V37.6364C14.7705 38.1133 15.1595 38.5 15.6393 38.5H48.9604C49.272 38.5 49.5246 38.2489 49.5246 37.9392C49.5246 37.7913 49.4658 37.6494 49.361 37.5444L47.7618 35.9415C47.4258 35.6048 47.4258 35.0619 47.7618 34.7252L49.2727 33.2109C49.434 33.0491 49.5246 32.8305 49.5246 32.6027V31.7306C49.5246 31.5028 49.434 31.2842 49.2727 31.1225L47.7618 29.6082C47.4258 29.2715 47.4258 28.7285 47.7618 28.3919L49.2727 26.8775C49.434 26.7158 49.5246 26.4972 49.5246 26.2694V25.3973C49.5246 25.1695 49.434 24.9509 49.2727 24.7892L47.7617 23.2748C47.4258 22.9381 47.4258 22.3952 47.7617 22.0585L49.2727 20.5442C49.434 20.3824 49.5246 20.1638 49.5246 19.936V19.1118C49.5246 18.877 49.4284 18.6523 49.2583 18.4895L47.8054 17.0995C47.4503 16.7598 47.4503 16.1948 47.8054 15.855L49.2583 14.465C49.4284 14.3022 49.5246 14.0776 49.5246 13.8428V13.0663C49.5246 12.8315 49.4284 12.6069 49.2583 12.4441L47.8054 11.0541C47.4503 10.7143 47.4503 10.1493 47.8054 9.80958L49.3617 8.32176C49.4661 8.22182 49.5246 7.93923 49.5246 7.93923C49.5246 7.64644 49.2858 7.40909 48.9912 7.40909H15.6393ZM31.7131 12.5909H27.3688L26.7172 14.9825H21.7213V18.1713H25.8484L25.1967 20.5629H21.7213V23.7517H24.3279L21.7213 33.3182H34.7541V29.3322H27.1516L28.6721 23.7517H34.7541V20.5629H29.541L30.1926 18.1713H34.7541V14.9825H31.0615L31.7131 12.5909Z" fill="#00AAFF"/>
<path d="M13.0328 8.27273C13.0328 7.79575 12.6438 7.40909 12.1639 7.40909H3.47541H0.868853C0.388999 7.40909 9.26423e-07 7.79575 9.26423e-07 8.27273L0 19.5C0 19.5 3.47541 19.5 3.47541 22.9545C3.47541 26.4091 0 26.4091 0 26.4091C-9.26423e-07 28.5682 9.26423e-07 37.6364 9.26423e-07 37.6364C9.26423e-07 38.1133 0.388999 38.5 0.868853 38.5H12.1639C12.6438 38.5 13.0328 38.1133 13.0328 37.6364V8.27273Z" fill="#00AAFF"/>
<path d="M3.87719 0.5C3.39273 0.5 3 0.885533 3 1.36111V6.52778H11.7719C12.7408 6.52778 13.5263 7.29884 13.5263 8.25C13.5263 7.29884 14.3118 6.52778 15.2807 6.52778H16.1579V1.36111C16.1579 0.885533 15.7652 0.5 15.2807 0.5H3.87719Z" fill="#006699"/>
<path d="M50.3627 31.5C50.3293 31.0967 50.1521 30.716 49.8597 30.4266L48.3343 28.9167L49.8597 27.4068C50.1856 27.0842 50.3684 26.6483 50.3684 26.194V25.3245C50.3684 24.8702 50.1856 24.4343 49.8597 24.1118L48.3343 22.6019L49.8597 21.0919C50.1856 20.7694 50.3684 20.3335 50.3684 19.8792V19.0573C50.3684 18.5892 50.1743 18.1412 49.8307 17.8165L48.3638 16.4306L49.8307 15.0446C50.1743 14.72 50.3684 14.272 50.3684 13.8038V13.0296C50.3684 12.5614 50.1743 12.1134 49.8307 11.7887L48.3638 10.4028L49.9345 8.91873C50.2117 8.65676 50.3684 8.29526 50.3684 7.91748C50.3684 7.14997 49.7346 6.52778 48.9528 6.52778H17.9123V1.36111C17.9123 0.885533 18.305 0.5 18.7895 0.5H52.4615C52.7589 0.5 53 0.736656 53 1.02859C53 1.17228 52.9404 1.30978 52.8349 1.40943L51.2643 2.89347C50.9058 3.23222 50.9058 3.79556 51.2643 4.13431L52.7311 5.52025C52.9029 5.68258 53 5.90658 53 6.14066V6.91489C53 7.14898 52.9029 7.37298 52.7311 7.53531L51.2643 8.92125C50.9058 9.25999 50.9058 9.82334 51.2643 10.1621L52.7311 11.548C52.9029 11.7104 53 11.9344 53 12.1684V12.9903C53 13.2175 52.9086 13.4354 52.7456 13.5967L51.2202 15.1066C50.8811 15.4423 50.8811 15.9836 51.2202 16.3193L52.7456 17.8293C52.9086 17.9905 53 18.2085 53 18.4356V19.3051C53 19.5323 52.9086 19.7502 52.7456 19.9115L51.2202 21.4214C50.8811 21.7571 50.8811 22.2985 51.2202 22.6342L52.7456 24.1441C52.9086 24.3053 53 24.5233 53 24.7504V25.6199C53 25.8471 52.9086 26.065 52.7456 26.2263L51.2202 27.7362C50.8811 28.0719 50.8811 28.6133 51.2202 28.949L52.8348 30.5472C52.9406 30.6519 53 30.7934 53 30.9409C53 31.2497 52.745 31.5 52.4304 31.5H50.3627Z" fill="#006699"/>
</g>
<defs>
<clipPath id="clip0_4_151">
<rect width="53" height="38" fill="white"/>
</clipPath>
</defs>
</svg>
