<svg width="37" height="38" viewBox="0 0 37 38" fill="none" xmlns="http://www.w3.org/2000/svg">
<g clip-path="url(#clip0_4_152)">
<path d="M31.5432 8.25114L35.2035 4.59082L32.6413 2.0286L28.981 5.68892L27.5168 4.22479L25.6867 6.05495L31.1771 11.5454L33.0073 9.71527L31.5432 8.25114Z" fill="#970000"/>
<path d="M11.0454 6.05495L8.84921 3.85876L7.38508 5.32288L3.72476 1.66257L1.16254 4.22479L4.82286 7.88511L3.35873 9.34923L5.55492 11.5454L11.0454 6.05495Z" fill="#970000"/>
<path d="M5.55492 26.1867L3.72476 28.0169L5.18889 29.481L1.52857 33.1413L4.09079 35.7035L7.75111 32.0432L9.21523 33.5073L11.0454 31.6772L5.55492 26.1867Z" fill="#970000"/>
<path d="M25.6867 31.6772L27.1508 33.1413L28.6149 31.6772L32.2752 35.3375L34.8375 32.7753L31.1771 29.1149L32.6413 27.6508L31.1771 26.1867L25.6867 31.6772Z" fill="#970000"/>
<path fill-rule="evenodd" clip-rule="evenodd" d="M37.0336 18.866L18.366 0.198425L-0.301592 18.866L18.366 37.5337L37.0336 18.866ZM33.3733 18.866L18.366 3.85874L3.35873 18.866L18.366 33.8733L33.3733 18.866Z" fill="#FD0000"/>
<path d="M15.0717 13.0095L18.366 9.71526L21.6603 13.0095L18.366 16.3038L15.0717 13.0095Z" fill="#CE0000"/>
<path fill-rule="evenodd" clip-rule="evenodd" d="M31.9092 18.866L18.366 5.32288L4.82285 18.866L18.366 32.4092L31.9092 18.866ZM23.1244 13.0095L18.366 8.25113L13.6076 13.0095L18.366 17.768L23.1244 13.0095Z" fill="#CE0000"/>
</g>
<defs>
<clipPath id="clip0_4_152">
<rect width="37" height="37" fill="white" transform="translate(0 0.5)"/>
</clipPath>
</defs>
</svg>
