<svg width="40" height="44" viewBox="0 0 40 44" fill="none" xmlns="http://www.w3.org/2000/svg">
<path d="M20 0.570635L39.5 11.2956V32.7044L20 43.4294L0.5 32.7044V11.2956L20 0.570635Z" stroke="#D0DEDD"/>
<path fill-rule="evenodd" clip-rule="evenodd" d="M20.5 32.2947L28.9752 27.5728L35.3821 31.1424L20.5 39.4338V32.2947ZM29.4615 26.6991L35.9231 30.2991L35.9231 13.7009L29.4615 17.3009L29.4615 26.6991ZM20.5 4.56616L35.3821 12.8576L28.9752 16.4272L20.5 11.7053L20.5 4.56616ZM19.5 4.56616L19.5 11.7053L11.0248 16.4272L4.61789 12.8576L19.5 4.56616ZM4.0769 13.7009L10.5384 17.3009L10.5385 26.6991L4.07692 30.2991L4.0769 13.7009ZM4.61791 31.1424L11.0248 27.5728L19.5 32.2947V39.4338L4.61791 31.1424Z" fill="#D0DEDD"/>
<path d="M24.5 24.5072L20 22V27.0143L24.5 24.5072Z" fill="#D0DEDD"/>
<path d="M20 27.0143V22L15.4999 24.5072L20 27.0143Z" fill="#D0DEDD"/>
<path d="M24.5 19.4929L20 22L24.5 24.5072V19.4929Z" fill="#D0DEDD"/>
<path d="M15.4999 19.4929L20 22V16.9857L15.4999 19.4929Z" fill="#D0DEDD"/>
<path d="M15.4999 24.5072L20 22L15.4999 19.4929L15.4999 24.5072Z" fill="#D0DEDD"/>
<path d="M20 22L24.5 19.4929L20 16.9857V22Z" fill="#D0DEDD"/>
</svg>
